<?xml version="1.0" encoding="UTF-8" standalone="no"?>
<!-- Created with Inkscape (http://www.inkscape.org/) -->

<svg
   width="256"
   height="256"
   viewBox="0 0 256 256"
   version="1.1"
   id="svg1"
   xml:space="preserve"
   inkscape:version="1.4.2 (ebf0e940, 2025-05-08)"
   sodipodi:docname="icon.svg"
   xmlns:inkscape="http://www.inkscape.org/namespaces/inkscape"
   xmlns:sodipodi="http://sodipodi.sourceforge.net/DTD/sodipodi-0.dtd"
   xmlns="http://www.w3.org/2000/svg"
   xmlns:svg="http://www.w3.org/2000/svg"><sodipodi:namedview
     id="namedview1"
     pagecolor="#ffffff"
     bordercolor="#666666"
     borderopacity="1.0"
     inkscape:showpageshadow="2"
     inkscape:pageopacity="0.0"
     inkscape:pagecheckerboard="0"
     inkscape:deskcolor="#d1d1d1"
     inkscape:document-units="px"
     inkscape:zoom="1.734137"
     inkscape:cx="193.17966"
     inkscape:cy="128.59422"
     inkscape:window-width="2304"
     inkscape:window-height="1371"
     inkscape:window-x="534"
     inkscape:window-y="79"
     inkscape:window-maximized="0"
     inkscape:current-layer="layer1"
     showguides="false"
     showgrid="false" /><defs
     id="defs1" /><g
     inkscape:label="Icon"
     inkscape:groupmode="layer"
     id="layer1"><g
       id="g1"
       transform="matrix(5.4622194,0,0,5.4622194,-5.3335328,-4.7866088)"><path
         id="path1-5"
         style="display:inline;fill:#ffcc00;fill-opacity:1;stroke:none;stroke-width:0.294017;stroke-linecap:round;stroke-linejoin:round;stroke-dasharray:none;stroke-opacity:1;paint-order:markers stroke fill"
         d="M 19.681176,4.3076277 C 19.290503,4.1630926 14.286053,5.3907434 13.93482,5.8051737 13.656696,6.1333415 13.572527,11.483031 13.477332,12.082452 12.993593,12.646551 11.683891,13.38204 10.812795,14.103754 9.941698,13.695157 5.8249562,11.504902 5.1276969,11.65375 c -0.4990877,0.106543 -3.203644,4.11127 -3.2196435,4.558592 -0.014544,0.406721 3.6713895,4.054237 3.6713895,4.054237 0,0 -0.3536873,12.192339 -0.034459,12.496362 0.415329,0.39554 7.1938791,0.79445 8.0242251,0.973792 0.194544,1.133043 -0.283724,2.895182 0,3.264728 0.2666,0.347244 5.645591,0.734141 5.823969,0.416977 0.17213,-0.306057 0.262986,-2.023907 0.40093,-3.311198 1.79809,-0.05101 8.559514,0.005 9.300981,0 0.17631,0.842122 0.212476,3.034719 0.440259,3.498954 0.139699,0.284714 6.039082,-0.241555 6.299554,-0.53102 0.262618,-0.29185 0.365607,-4.00768 0.365607,-4.00768 l 6.942716,-0.34723 c 0.104778,-5.209024 -0.0402,-12.251943 -0.0402,-12.251943 0,0 3.927699,-3.782492 3.893434,-4.203604 -0.03342,-0.41067 -2.746906,-4.401417 -3.221559,-4.556653 -0.442565,-0.14474 -4.917517,2.139629 -4.917517,2.139629 0,0 -2.675905,-1.457001 -3.430203,-1.819556 0,0 -0.03334,-6.0224178 -0.310092,-6.426645 -0.26284,-0.3839073 -5.602405,-1.4974944 -5.893748,-1.2414889 -0.363569,0.319471 -3.010999,4.1803259 -3.010999,4.1803259 -1.272072,0.040158 -2.54508,-0.02363 -3.816866,-0.054315 0,0 -2.392878,-4.0594716 -2.714301,-4.1783865 z M 34.50581,20.892061 c 2.212123,0.974083 4.129561,2.422875 4.129535,4.588771 2.6e-5,2.165897 -1.972651,3.921851 -4.406433,3.92233 -2.43453,4.61e-4 -4.408374,-1.755767 -4.408347,-3.92233 -2.7e-5,-2.166562 2.58328,-5.51435 4.685245,-4.588771 z m -7.969206,3.975872 v 3.450951 c 0.08522,2.632191 -3.855731,2.759554 -3.980336,-0.07186 v -3.45095 c 0.112128,-2.436135 3.814957,-2.924738 3.980336,0.07186 z M 5.5947563,34.437011 c 0.073475,1.899353 0.1984921,3.285478 0.4038907,3.526604 4.715048,5.535182 11.784973,8.32602 17.94157,8.162789 6.515768,0.509059 13.769327,-2.117354 18.745523,-7.959106 0.194351,-0.228157 0.402722,-1.95486 0.390493,-3.225931 -0.789319,-0.03479 -5.07249,0.117462 -5.307503,0.423691 -0.252207,0.328634 -0.396742,3.863324 -0.396742,3.863324 l -9.448371,0.370507 c 0,0 -0.04845,-3.142291 -0.292869,-3.414094 -0.204605,-0.227535 -5.956174,-0.647828 -6.173185,-0.258403 -0.292363,0.524646 -0.417322,3.821863 -0.417322,3.821863 l -8.569766,-0.816666 -0.438346,-3.563462 z"
         sodipodi:nodetypes="ssccsscscssccsscccssccssccsscccsccccccscscsccsscccc" /><path
         id="path1"
         style="display:inline;fill:#333333;fill-opacity:1;stroke:none;stroke-width:0.3;stroke-linecap:round;stroke-linejoin:round;stroke-dasharray:none;stroke-opacity:1;paint-order:markers stroke fill"
         d="M 19.459305,2.7646946 C 19.060683,2.6172185 13.954403,3.8698493 13.596024,4.2927123 13.31224,4.6275576 13.226359,10.086102 13.129227,10.69772 12.635645,11.273297 11.299293,12.023751 10.410472,12.760151 9.521651,12.34324 5.3211423,10.108418 4.6096954,10.260294 c -0.5092438,0.108711 -3.2688316,4.194926 -3.2851563,4.65135 -0.014843,0.414996 3.7460938,4.136731 3.7460938,4.136731 0,0 -0.360884,12.440426 -0.035156,12.750635 0.4237799,0.403589 7.3402591,0.810616 8.1875001,0.993607 0.198503,1.156098 -0.289497,2.954092 0,3.331158 0.272025,0.354309 5.760466,0.749079 5.942474,0.425461 0.175633,-0.312284 0.268337,-2.065089 0.409088,-3.378573 1.834677,-0.05205 8.733681,0.0051 9.490235,0 0.179898,0.859257 0.2168,3.096469 0.449218,3.57015 0.142541,0.290507 6.161963,-0.24647 6.427735,-0.541825 0.267962,-0.297789 0.373047,-4.089228 0.373047,-4.089228 l 7.083984,-0.354295 c 0.10691,-5.315016 -0.04102,-12.501243 -0.04102,-12.501243 0,0 4.007619,-3.859457 3.972657,-4.289138 -0.0341,-0.419026 -2.802799,-4.490976 -3.28711,-4.64937 -0.451571,-0.147686 -5.017578,2.183165 -5.017578,2.183165 0,0 -2.730354,-1.486647 -3.5,-1.85658 0,0 -0.03402,-6.1449606 -0.316402,-6.5574129 -0.268188,-0.3917189 -5.716401,-1.527965 -6.013672,-1.2667504 -0.370967,0.3259715 -3.072266,4.2653862 -3.072266,4.2653862 -1.297956,0.040975 -2.596867,-0.024111 -3.894531,-0.05542 0,0 -2.441568,-4.1420728 -2.769531,-4.2634073 z M 34.585587,19.686584 c 2.257135,0.993904 4.213589,2.472175 4.213562,4.682143 2.7e-5,2.209968 -2.01279,4.001652 -4.496094,4.00214 -2.484067,4.71e-4 -4.498074,-1.791493 -4.498047,-4.00214 -2.7e-5,-2.210647 2.635844,-5.626555 4.780579,-4.682143 z m -8.131361,4.056773 v 3.52117 c 0.08695,2.68575 -3.934187,2.815704 -4.061327,-0.07332 v -3.52117 c 0.114409,-2.485705 3.892583,-2.984249 4.061327,0.07332 z M 5.0862579,33.507144 c 0.074967,1.938 0.2025307,3.35233 0.4121094,3.598362 4.8109887,5.647811 12.0247707,8.495436 18.3066407,8.328884 6.648349,0.519417 14.049502,-2.160438 19.126953,-8.121056 0.198305,-0.2328 0.410916,-1.994637 0.398438,-3.291572 -0.80538,-0.0355 -5.175704,0.119852 -5.415499,0.432313 -0.257338,0.335321 -0.404814,3.941934 -0.404814,3.941934 l -9.640625,0.378046 c 0,0 -0.04944,-3.20623 -0.298828,-3.483564 -0.208768,-0.232164 -6.077369,-0.66101 -6.298795,-0.263661 -0.298312,0.535322 -0.425814,3.89963 -0.425814,3.89963 l -8.744141,-0.833284 -0.447266,-3.63597 z"
         sodipodi:nodetypes="ssccsscscssccsscccssccssccsscccsccccccscscsccsscccc" /><path
         id="path3"
         style="display:inline;fill:#666666;stroke:none;stroke-width:1.15841px;stroke-linecap:butt;stroke-linejoin:miter;stroke-opacity:1"
         d="m 11.116406,18.0049 c -0.117462,0.204544 -0.107155,1.669345 -0.160731,2.504018 0,0 -2.3403199,0.166465 -2.4417856,0.256555 -0.1638955,0.145523 -0.20873,1.902244 -0.084577,2.070346 0.1035987,0.140272 1.5901756,0.02696 2.3804366,-0.05129 l -0.10786,1.700363 c 0,0 -2.0067054,0.05065 -2.1193007,0.102067 -0.1592479,0.07271 -0.1859205,1.448228 -0.077141,1.539718 0.1061996,0.08932 1.4026569,-0.07678 2.0991577,-0.129648 0,0 -0.232632,2.679064 -0.177651,2.774723 0.08483,0.147586 2.009631,-0.227654 2.108579,-0.3698 0.110389,-0.158581 0.206628,-2.6303 0.206628,-2.6303 l 1.952623,-0.08551 c -0.03665,0.943942 -0.24685,2.529487 -0.147431,2.663266 0.0764,0.102814 1.648893,0.134473 1.758972,0.02542 0.109417,-0.108395 0.04204,-2.291169 0.0559,-2.690061 0.746552,-0.05639 2.780944,-0.08703 2.896244,-0.275403 0.170668,-0.278842 0.08022,-1.350144 0.02833,-1.443628 -0.05645,-0.101796 -2.109203,0.16982 -2.826149,0.191671 0.04935,-0.69791 0.0987,-1.245991 0.148042,-1.943901 0.89671,-0.08882 2.56262,-0.08169 2.690128,-0.266475 0.09678,-0.140257 0.374766,-1.566345 0.230522,-1.68133 -0.144419,-0.115124 -2.789527,0.08037 -2.789527,0.08037 0.05922,-0.833262 0.224761,-2.286895 0.11006,-2.58669 -0.09018,-0.235708 -1.717653,-0.0071 -1.854201,0.138389 -0.132128,0.140871 -0.06388,1.666038 -0.09581,2.499057 -0.662662,0.01904 -1.325325,0.03806 -1.987987,0.0571 0,0 0.14356,-2.530615 0.0015,-2.723041 -0.221967,-0.300792 -1.711381,0.124765 -1.797094,0.274024 z m 3.705269,4.384146 c -0.02538,0.657023 -0.05075,1.201673 -0.07613,1.858696 l -1.890703,0.171592 c 0.0092,-0.61261 0.01833,-1.225221 0.02749,-1.837831 0.646448,-0.06415 1.292895,-0.128304 1.939343,-0.192457 z"
         sodipodi:nodetypes="ccssccsscssccsscssccsscssccsscccccc" /></g></g></svg>
